<?xml version="1.0" encoding="UTF-8" standalone="no"?>
<svg
   xmlns:dc="http://purl.org/dc/elements/1.1/"
   xmlns:cc="http://creativecommons.org/ns#"
   xmlns:rdf="http://www.w3.org/1999/02/22-rdf-syntax-ns#"
   xmlns:svg="http://www.w3.org/2000/svg"
   xmlns="http://www.w3.org/2000/svg"
   xmlns:sodipodi="http://sodipodi.sourceforge.net/DTD/sodipodi-0.dtd"
   xmlns:inkscape="http://www.inkscape.org/namespaces/inkscape"
   viewBox="0 0 512 512"
   version="1.1"
   id="svg15"
   sodipodi:docname="usuario.svg"
   inkscape:version="1.0.1 (1.0.1+r73)">
  <metadata
     id="metadata21">
    <rdf:RDF>
      <cc:Work
         rdf:about="">
        <dc:format>image/svg+xml</dc:format>
        <dc:type
           rdf:resource="http://purl.org/dc/dcmitype/StillImage" />
        <dc:title></dc:title>
      </cc:Work>
    </rdf:RDF>
  </metadata>
  <defs
     id="defs19" />
  <sodipodi:namedview
     pagecolor="#ffffff"
     bordercolor="#666666"
     borderopacity="1"
     objecttolerance="10"
     gridtolerance="10"
     guidetolerance="10"
     inkscape:pageopacity="0"
     inkscape:pageshadow="2"
     inkscape:window-width="1366"
     inkscape:window-height="705"
     id="namedview17"
     showgrid="false"
     inkscape:zoom="0.72070312"
     inkscape:cx="256"
     inkscape:cy="256"
     inkscape:window-x="0"
     inkscape:window-y="30"
     inkscape:window-maximized="1"
     inkscape:current-layer="svg15" />
  <linearGradient
     id="a"
     gradientTransform="matrix(1 0 0 -1 0 -6826)"
     gradientUnits="userSpaceOnUse"
     x1="0"
     x2="512"
     y1="-7082"
     y2="-7082">
    <stop
       offset="0"
       stop-color="#31d8ff"
       id="stop2" />
    <stop
       offset="1"
       stop-color="#ff80ff"
       id="stop4" />
  </linearGradient>
  <path
     d="m512 256c0 141.386719-114.613281 256-256 256s-256-114.613281-256-256 114.613281-256 256-256 256 114.613281 256 256zm0 0"
     fill="url(#a)"
     id="path7" />
  <g
     fill="#fff"
     id="g13">
    <path
       d="m256 271.878906c-58.691406 0-106.441406-47.746094-106.441406-106.441406 0-58.691406 47.75-106.4375 106.441406-106.4375s106.441406 47.746094 106.441406 106.4375c0 58.695312-47.75 106.441406-106.441406 106.441406zm0-182.878906c-42.148438 0-76.441406 34.289062-76.441406 76.4375 0 42.152344 34.292968 76.441406 76.441406 76.441406s76.441406-34.289062 76.441406-76.441406c0-42.148438-34.292968-76.4375-76.441406-76.4375zm0 0"
       id="path9" />
    <path
       d="m136.425781 429c-3.980469 0-7.796875-1.582031-10.609375-4.394531s-4.390625-6.628907-4.390625-10.605469c0-71.28125 57.988281-129.273438 129.269531-129.273438h10.605469c71.28125 0 129.273438 57.992188 129.273438 129.273438 0 8.28125-6.714844 15-15 15zm16.128907-30h206.890624c-7.253906-47.648438-48.5-84.273438-98.140624-84.273438h-10.605469c-49.640625 0-90.890625 36.625-98.144531 84.273438zm0 0"
       id="path11" />
  </g>
</svg>
